<?xml version="1.0" encoding="utf-8"?>
<!-- Generator: Adobe Illustrator 23.1.0, SVG Export Plug-In . SVG Version: 6.00 Build 0)  -->
<svg version="1.1" id="レイヤー_2" xmlns="http://www.w3.org/2000/svg" xmlns:xlink="http://www.w3.org/1999/xlink" x="0px"
	 y="0px" viewBox="0 0 1000 1000" style="enable-background:new 0 0 1000 1000;" xml:space="preserve">
<style type="text/css">
	.st0{fill:none;stroke:#D70051;stroke-miterlimit:10;}
</style>
<path class="st0" d="M438.4,291.6c33.9,0,75.2-34.8,75.2-64.9c0-75.4,2.4-137.8,2.4-137.8c0-16.1,3.4-23.7,18.4-23.7
	c0-1.6,58.8,0,124.3,0c20.7,0,45.8,17.6,45.8,41v792.9c0,13.3-25.2,43.4-34.7,43.4c0,0-158.9,0-336.3,0c-18.7,0-37.3-24.4-37.3-39.3
	l-4.7-577.7c0-25.5,8.5-34.8,35.4-34.8C343.2,290.6,384.5,291.6,438.4,291.6L438.4,291.6z"/>
</svg>
